<?xml version="1.0" encoding="utf-8"?>
<!-- Generator: Adobe Illustrator 26.1.0, SVG Export Plug-In . SVG Version: 6.00 Build 0)  -->
<svg version="1.1" id="Layer_1" xmlns="http://www.w3.org/2000/svg" xmlns:xlink="http://www.w3.org/1999/xlink" x="0px" y="0px"
	 viewBox="0 0 24.5 15.6" style="enable-background:new 0 0 24.5 15.6;" xml:space="preserve">
<style type="text/css">
	.st0{fill:#8247E5;}
</style>
<g>
	<path class="st0" d="M8.4,1.5c0.1,0.1,0.2,0.2,0.3,0.3c0.1,0.1,0.1,0.3,0.1,0.5s0,0.4-0.1,0.5c0,0.3-0.2,0.4-0.3,0.5
		c-0.2,0-0.3,0.1-0.5,0.1c-0.1,0-0.2,0-0.3-0.1c-0.1,0-0.2-0.1-0.3-0.1v1H6.7V1.5h0.5l0.1,0.2C7.5,1.5,7.7,1.4,8,1.4
		C8.1,1.4,8.3,1.4,8.4,1.5z M8.1,2.8c0.1-0.1,0.2-0.2,0.2-0.4S8.2,2.1,8.1,2C8,1.9,7.9,1.9,7.8,1.9c-0.1,0-0.2,0-0.3,0.1
		C7.4,2,7.4,2.1,7.3,2.2v0.4c0,0.1,0.1,0.2,0.2,0.2c0,0.1,0.1,0.1,0.2,0.1C7.9,2.9,8,2.9,8.1,2.8z"/>
	<path class="st0" d="M9.2,1.9c0.1-0.1,0.2-0.3,0.4-0.3c0.2-0.1,0.3-0.1,0.5-0.1s0.4,0,0.5,0.1S10.9,1.8,11,2
		c0.1,0.1,0.1,0.3,0.1,0.5c0,0.2,0,0.3-0.1,0.5c-0.1,0.1-0.2,0.3-0.4,0.3c-0.1,0.1-0.3,0.1-0.5,0.1s-0.4,0-0.5-0.1S9.3,3.1,9.2,3
		C9.1,2.9,9.1,2.7,9.1,2.5C9.1,2.2,9.1,2,9.2,1.9z M9.8,2.8c0.1,0.1,0.2,0.1,0.3,0.1s0.2-0.1,0.3-0.1s0.1-0.2,0.1-0.4
		c0-0.2,0-0.3-0.1-0.4s-0.2-0.1-0.3-0.1S9.9,2,9.8,2C9.7,2.1,9.7,2.2,9.7,2.4C9.7,2.5,9.7,2.7,9.8,2.8z"/>
	<path class="st0" d="M12.1,0v3.3h-0.6V0H12.1z"/>
	<path class="st0" d="M14.5,1.5l-1.2,2.7h-0.6l0.4-1l-0.8-1.7H13l0.5,1.1L14,1.5C13.9,1.5,14.5,1.5,14.5,1.5z"/>
	<path class="st0" d="M16.8,1.5v1.8c0,0.2,0,0.3-0.1,0.5S16.4,4,16.2,4.1s-0.4,0.1-0.6,0.1c-0.1,0-0.3,0-0.4-0.1C15.1,4.1,15,4,15,4
		c-0.1,0-0.2-0.1-0.3-0.2L15,3.4c0.2,0.2,0.3,0.2,0.4,0.3s0.2,0.1,0.3,0.1c0.1,0,0.3,0,0.4-0.1s0.1-0.2,0.1-0.3V3.1
		C16,3.2,16,3.3,15.8,3.3c-0.1,0.1-0.3,0.1-0.4,0.1s-0.3,0-0.5-0.1c-0.1-0.1-0.2-0.2-0.3-0.3c-0.1-0.3-0.1-0.4-0.1-0.6
		s0-0.3,0.1-0.5s0.2-0.3,0.4-0.4c0.1-0.1,0.3-0.1,0.4-0.1s0.3,0,0.4,0.1c0.1,0,0.2,0.1,0.3,0.2l0.1-0.1L16.8,1.5L16.8,1.5z
		 M16.1,2.6V2.2C16.1,2.1,16,2,15.9,2s-0.2-0.1-0.3-0.1c-0.1,0-0.3,0.1-0.4,0.1c-0.1,0.1-0.1,0.2-0.1,0.4c0,0.1,0,0.3,0.1,0.4
		C15.4,2.9,15.5,3,15.6,3C15.8,2.9,16,2.8,16.1,2.6z"/>
	<path class="st0" d="M17.2,1.9c0.1-0.2,0.2-0.3,0.3-0.4c0.2-0.1,0.3-0.1,0.5-0.1s0.4,0,0.5,0.1s0.3,0.2,0.4,0.3C19,2,19,2.1,19,2.3
		s0,0.4-0.1,0.5c-0.1,0.2-0.2,0.3-0.4,0.4c-0.1,0.1-0.3,0.1-0.5,0.1s-0.4,0-0.5-0.1c-0.2-0.1-0.3-0.2-0.4-0.3C17,2.7,17,2.6,17,2.4
		C17,2.2,17.1,2,17.2,1.9z M17.8,2.8C17.9,2.9,18,2.9,18,2.9s0.2-0.1,0.3-0.1s0.2-0.3,0.2-0.4c0-0.2,0-0.3-0.1-0.4s-0.2-0.1-0.3-0.1
		S17.9,2,17.9,2c-0.1,0.1-0.1,0.2-0.1,0.4C17.6,2.5,17.8,2.7,17.8,2.8z"/>
	<path class="st0" d="M21.2,1.6c0.1,0.1,0.2,0.2,0.2,0.4v1.4h-0.6V2.2c0-0.2-0.1-0.3-0.3-0.3c-0.1,0-0.2,0.1-0.3,0.2S20,2.4,20,2.6
		v0.7h-0.5V1.5H20v0.3c0.1-0.1,0.2-0.2,0.3-0.3c0.1-0.1,0.3-0.1,0.4-0.1C20.9,1.4,21,1.5,21.2,1.6z"/>
</g>
<path class="st0" d="M4.2,1.5C4.1,1.4,4,1.4,3.9,1.5L3.1,1.9L2.6,2.2L1.8,2.7c-0.1,0.1-0.2,0.1-0.3,0L0.8,2.3C0.7,2.3,0.7,2.2,0.7,2
	V1.3c0-0.1,0.1-0.2,0.2-0.3l0.6-0.3c0.1-0.1,0.2-0.1,0.3,0L2.4,1c0.1,0.1,0.2,0.2,0.2,0.3v0.5l0.5-0.3V1c0-0.1-0.1-0.2-0.2-0.3
	L1.8,0.1C1.7,0,1.6,0,1.5,0.1L0.3,0.7C0.2,0.8,0.1,0.9,0.1,1v1.3c0,0.2,0.1,0.3,0.2,0.3l1.2,0.7c0.1,0.1,0.2,0.1,0.3,0l0.8-0.4
	l0.5-0.3l0.8-0.4c0.1-0.1,0.2-0.1,0.3,0l0.6,0.3C4.9,2.5,5,2.6,5,2.7v0.7c0,0.1-0.1,0.2-0.2,0.3L4.2,4.1C4.1,4.2,4,4.2,3.9,4.1
	L3.3,3.7c-0.1,0-0.2-0.1-0.2-0.2V3L2.6,3.3v0.5c0,0.1,0.1,0.2,0.2,0.3L4,4.8c0.1,0.1,0.2,0.1,0.3,0l1.2-0.7c0-0.1,0.1-0.2,0.1-0.3
	V2.4c0-0.1-0.1-0.2-0.2-0.3L4.2,1.5z"/>
</svg>
